# xmcd CD database file
#
# Track frame offsets:
#	150
#	14550
#	19237
#	40050
#	68475
#	97327
#	119700
#	136570
#	165337
#	191625
#	207237
#	237825
#
# Disc length: 3289 seconds
#
# Revision: 1
# Processed by: cddbd v1.5.2PL0 Copyright (c) Steve Scherf et al.
# Submitted via: CDex 1.51
#
DISCID=a00cd70c
DTITLE=Dik Darnell - Voice Of The Four Winds
DYEAR=1994
DGENRE=New Age
TTITLE0=Invocation of the Above Beings
TTITLE1=Footsteps to the Creator
TTITLE2=Communion
TTITLE3=Dream Catcher
TTITLE4=I AM calling you Creator
TTITLE5=The Great Mystery Journey
TTITLE6=E-O-Ih
TTITLE7=Standing In The Clouds
TTITLE8=Spirit Of Two Hearts
TTITLE9=African Sojourn
TTITLE10=Voice In The Wind (E-O-Ih)
TTITLE11=Confirmation and Departure
EXTD=YEAR: 1994
EXTT0=
EXTT1=
EXTT2=
EXTT3=
EXTT4=
EXTT5=
EXTT6=
EXTT7=
EXTT8=
EXTT9=
EXTT10=
EXTT11=
PLAYORDER=
